Patient4_TMGait_0pt2_03_right_15_EMG.mot
version=1
nRows=36
nColumns=33
inDegrees=no
endheader
time	1LAddLong	2LGlutMax	3LGlutMed	4LIliopsoas	5LSemiMemb	6LBicFemLong	7LRecFem	8LVastMed	9LVastLat	10LGasMed	11LTibAnt	12lTibPost	13LPeroneusLong	14LSol	15LExtDigLong	16LFlexDigLong	17RAddLong	18RGlutMax	19RGlutMed	20RIliopsoas	21RSemiMemb	22RBicFemLong	23RRecFem	24RVastMed	25RVastLat	26RGasMed	27RTibAnt	28RTibPost	29RPeroneusLong	30RSol	31RExtDigLong	32RFlexDigLong
32.23	-0.033417	-0.002594	0.12009	0.002136	-0.011597	-0.16251	0.19394	-0.029144	0.021667	0.01297	0.51636	-0.017853	-0.074158	-0.002136	0.33203	-0.002136	-0.010529	0.10864	-0.36438	0.2179	0.10315	-0.17838	0.080566	0.05661	0.003967	-0.001831	-0.084534	-0.002594	0.11261	-0.066223	-0.001984	-0.009308
32.231	-0.02594	-0.079651	0.084991	0.00946	-0.012054	-0.12421	0.16007	-0.040894	0.17212	-0.074768	0.62057	-0.023651	0.12146	0.11581	-0.4364	-0.060425	-0.003967	0.089722	-0.71259	0.34912	0.10819	-0.16876	0.14648	0.070953	-0.003967	-0.005188	-0.23163	-0.002441	0.1857	-0.003967	0.002747	-0.009918
32.232	-0.012817	-0.075836	-0.066681	0.014954	0.014343	-0.18173	0.095825	-0.009766	0.19547	-0.079498	-0.072174	-0.018158	0.090027	0.24353	0.040436	-0.058441	-0.019226	0.039063	-0.12177	0.4631	0.11337	-0.19073	0.079956	0.057373	-0.017242	-0.01236	0.084686	-0.005493	0.24323	0.008087	0.001984	-0.005798
32.233	0.022125	-0.10956	-0.009155	0.000153	0.011902	-0.22263	0.012207	0.017548	0.20706	-0.056915	-0.15182	-0.013733	0.093231	0.32486	-0.28992	0.017853	-0.010071	0.030823	1.4873	0.1474	0.099182	-0.19592	0.059967	0.012817	-0.013428	-0.001068	0.19257	0.000305	-0.010529	-0.15579	-0.001678	-0.010986
32.234	0.034943	-0.10788	-0.049286	0.009003	0.022278	-0.2504	-0.064697	0.044556	0.21194	0.019226	-0.42801	-0.025177	-0.034637	0.27298	-0.045624	0.017853	0.006104	0.038757	1.8214	-0.05249	0.083466	-0.22537	-0.015869	-0.054779	0.006256	0.005798	-0.13733	-0.003662	-0.19089	-0.18921	-0.002441	-0.000153
32.235	0.046082	-0.16007	-0.14832	0.012817	0.019226	-0.052643	-0.077972	0.011292	0.019989	0.009766	-0.23514	-0.018921	-0.002441	0.092163	-0.42816	-0.007172	0.009003	0.046997	0.58243	-0.16296	0.084839	-0.24002	-0.055084	-0.011749	0.026398	0.000305	-0.28976	0	-0.13809	-0.051727	0.001221	-0.007477
32.236	0.039368	-0.15671	-0.15915	0.019073	0.024414	-0.00473	-0.071564	-0.027008	-0.10239	-0.012512	-0.082703	-0.020599	0.049896	0.027618	-0.39246	-0.19699	0.005646	-0.070038	-0.44128	-0.22675	0.089722	-0.25436	-0.06958	-0.050964	0.025635	-0.003967	0.005341	-0.009003	-0.12604	-0.0383	0.001526	-0.011139
32.237	0.037231	-0.14771	-0.079041	0.013733	0.03006	0.005188	-0.045319	-0.027008	-0.10376	0.012665	-0.24307	-0.017548	0.091095	-0.14038	-0.43533	0.53223	-0.000458	-0.065155	-0.44601	-0.22598	0.085907	-0.2652	-0.021515	-0.009308	0.007782	-0.008698	0.086823	-0.000458	-0.24704	0.0354	0.001373	-0.011444
32.238	0.035095	-0.12451	-0.049133	-0.005646	0.024261	0.014954	-0.034332	-0.026245	-0.032501	0.059052	-0.28061	-0.005798	0.022736	-0.14511	-0.19394	-0.64194	-0.012665	-0.095673	-0.39749	-0.23636	0.077667	-0.29251	-0.030823	-0.066833	0.010681	-0.009155	0.10605	-0.001678	-0.23575	0.020599	0.000763	-0.011292
32.239	0.031281	-0.10529	-0.11154	0.013123	0.030975	0.024109	0.031128	-0.010834	-0.019379	0.083618	-0.13458	-0.020905	-0.028839	-0.12268	-0.039063	0.29297	-0.012665	-0.10346	0.000916	-0.16556	0.082092	-0.3096	-0.10056	-0.032654	0.018616	-0.013885	-0.032959	-0.001984	-0.3154	0.021057	-0.000458	-0.00824
32.24	0.029297	-0.065918	0.012817	-0.003815	0.05249	0.009766	0.11643	-0.006561	-0.029755	0.030823	0.014801	-0.009918	-0.012207	0.09552	0.35217	0.62988	-0.00946	-0.061951	0.3067	-0.11581	0.082855	-0.34439	-0.048065	-0.045013	0.016174	-0.009308	-0.17975	0	-0.12009	-0.019989	0.00412	-0.00351
32.241	0.029449	-0.031891	0.20416	0.004883	0.025177	0.027466	0.14023	0.011292	-0.023193	0.013123	0.18295	-0.021667	-0.063629	0.20599	0.39139	-0.29327	-0.000458	0.023041	0.04364	-0.15442	0.08316	-0.37674	-0.016174	-0.069427	0.00473	-0.01236	-0.096741	0.000153	-0.069275	-0.042572	-0.002899	-0.000305
32.242	0.026398	-0.063019	0.26855	0.00946	0.037689	0.093231	0.16846	0.019226	-0.016022	0.008087	0.29327	-0.022736	-0.17716	0.27084	0.3241	0.20416	0.037537	0.02594	-0.58334	-0.007324	0.078125	-0.36987	0.000763	-0.084839	0.001984	-0.002747	0.22659	-0.002136	-0.31296	-0.095825	-0.000305	-0.005188
32.243	0.018616	-0.047607	0.12268	0.002747	0.008698	0.083771	0.1535	0.033875	0.002899	-0.000305	0.27008	-0.010834	-0.081482	0.3775	0.22842	0.18249	0.094452	0.034027	-0.72098	-0.008392	0.077667	-0.2655	0.019379	-0.089111	0.005188	-0.009155	0.26825	-0.002136	-0.12894	-0.13107	-0.002594	-0.007477
32.244	0.029449	0.014496	0.1062	0.009155	-0.013275	0.032043	0.065918	0.040894	0.054474	-0.003052	-0.31082	-0.008087	0.011902	0.37293	0.040131	0.47592	0.083313	0.063019	-0.062714	0.11581	0.093536	-0.21042	0.003815	-0.12039	0.008545	-0.011597	0.62683	-0.005646	0.51071	-0.21088	-0.001221	-0.004883
32.245	0.027008	0.075836	0.098419	0.001831	0.008698	0.014038	0.014191	0.052338	0.04364	-0.027466	-0.062866	0.001984	0.11932	0.086823	-0.14374	-0.2002	0.055847	0.076904	0.78659	0.28717	0.08194	-0.1384	0.035095	-0.13962	0.035553	-0.010986	0.79239	-0.005798	0.6076	-0.19455	-0.006714	-0.005035
32.246	0.026855	0.091248	0.019226	-0.003662	0.015259	0.033569	-0.13351	0.037079	0.07019	-0.062561	0.018005	-0.006256	0.20523	-0.061035	-0.10651	-0.78323	0.047302	0.033112	0.87906	0.27786	0.081024	-0.095062	0.034943	-0.11673	0.04364	-0.005798	0.23224	-0.005951	0.41184	-0.083008	-0.001068	-0.002136
32.247	0.03418	0.030365	-0.11078	0.005646	0.019379	0.023956	-0.32593	0.014191	0.19974	-0.042267	-0.2005	-0.020294	0.17944	-0.18585	0.072327	0.49133	0.013428	-0.068665	0.22385	0.19836	0.079651	-0.050354	0.05661	-0.11047	0.046844	-0.002441	-0.19394	-0.003204	0.063934	0.016632	-0.004578	-0.011292
32.248	0.024567	0.07019	-0.13718	0.011292	0.013123	0.023651	-0.30502	-0.028534	0.18051	-0.016632	0.035706	0.004272	0.042114	-0.42023	0.1059	-0.011902	-0.019836	-0.042267	-0.33798	-0.007782	0.093689	-0.02533	-0.012817	-0.085144	0.062714	-0.003052	-0.084076	-0.005493	-0.22339	0.028534	0.000305	-0.002289
32.249	0.010681	0.10025	-0.041962	0.007782	0.018463	0.039673	-0.1387	0.000305	0.060425	0.007477	-0.092468	0.000153	0.051727	-0.71365	-0.14938	0.41611	-0.036316	-0.025787	-0.70801	-0.021973	0.099945	0.031281	-0.065002	-0.09903	0.080261	-0.000916	-0.33127	-0.005646	-0.077667	0.079041	0.000458	-0.011292
32.25	0.00351	0.11719	0.096588	0.003662	-0.008087	0.08255	0.000458	-0.002289	-0.070648	-0.005951	-0.14114	-0.009308	0.037689	-0.43778	0.010223	0.091858	-0.032501	0.024261	-0.71121	0.15091	0.10117	0.04425	-0.030365	-0.02655	0.056763	0.003815	-0.16525	-0.004425	-0.1268	-0.039368	-0.000763	-0.009155
32.251	0.00824	0.1062	0.1178	0.000916	-0.026398	0.070038	0.038757	-0.022736	-0.10666	-0.018005	-0.050049	-0.003967	0.056152	-0.32532	0.13229	-0.024567	0.02182	-0.054169	-1.068	0.26077	0.075836	0.064392	0.086212	-0.040588	0.04425	0.00351	-0.15854	-0.001068	-0.002136	-0.13351	-0.000305	-0.002136
32.252	0.010223	0.13855	0.16144	0.012512	-0.041962	0.001831	-0.017853	-0.036469	-0.04776	-0.017548	0.0354	0.013123	0.039825	-0.18814	0.042572	0.043335	0.031433	-0.072327	-0.82779	0.12177	0.091705	0.06958	0.10483	0.022583	0.024261	-0.003357	-0.1062	-0.000763	-0.066223	-0.094452	-0.001221	-0.012054
32.253	0.007629	0.17303	0.12665	0.018005	-0.003204	0.015717	-0.060425	-0.030212	-0.039673	-0.006866	0.020905	-0.00351	0.009003	-0.091858	0.009613	-0.383	0.071106	0.004578	1.5575	-0.103	0.072632	0.053406	0.1236	0.035553	0.037079	-0.010376	-0.00412	-0.003357	0.10483	0.049133	-0.003204	-0.013885
32.254	-0.006866	0.098724	0.13565	0.012512	0.041656	0.013733	0.011292	-0.012207	-0.084381	0.007172	0.018463	0.001373	0.000763	-0.14526	0.0383	0.021515	0.058289	0.00885	1.0948	-0.15961	0.056	0.037689	0.06073	0.035706	0.025635	-0.001373	-0.1561	-0.002136	0.14725	0.11047	-0.001526	-0.006714
32.255	-0.010529	0.068054	0.0737	0.006256	0.014343	0.021515	0.024261	0.005493	-0.074463	0.027466	0.022125	-0.011749	0.030365	-0.24139	0.1152	0.090179	0.016479	0.00412	0.51529	-0.28961	0.046387	0.021667	0.059967	0.068512	0.019684	-0.002289	-0.24857	-0.00061	0.16632	0.11215	-0.005341	-0.004425
32.256	-0.011749	0.04715	0.039825	0.012054	0.001373	0.005493	-0.053406	0.014801	0.014954	0.036316	0.032501	0.006256	0.005493	-0.2388	0.14893	0.027161	-0.031433	0.006866	0.11414	-0.36941	0.047913	0.031738	0.073547	0.063934	0.010834	0.00061	-0.24506	-0.001831	-0.018768	0.029907	-0.004883	-0.016479
32.257	-0.000305	-0.051575	-0.177	-0.000305	0.002136	0.010834	-0.10162	0.036316	0.26184	0.042725	0.054474	0.006256	-0.009155	-0.20645	0.14282	-0.01236	-0.063782	-0.014496	-0.46585	-0.34943	0.057983	0.040588	0.073547	0.042267	-0.001678	-0.006409	-0.07431	-0.002899	-0.39002	0.023193	0.00061	-0.009613
32.258	-0.005341	-0.11826	-0.21439	-0.00885	0.015106	0.01358	-0.088043	0.055847	0.49133	0.033875	0.06012	0.00473	0.007629	-0.16647	0.090027	-0.012512	-0.057831	0.028076	-0.61264	-0.23529	0.057373	0.082092	0.037384	0.036774	0.018768	-0.008392	0.13931	-0.006256	-0.55588	0.006561	-0.008392	-0.01358
32.259	0.000916	-0.20493	-0.37064	0.000458	-0.010223	0.024719	-0.097351	0.05188	0.62134	0.040283	0.066376	-0.010529	0.028687	-0.10162	0.061798	-0.006866	-0.058289	0.11368	-0.47409	-0.17746	0.069733	0.073853	-0.028076	0.02182	0.027771	0.000458	0.24963	-0.001678	-0.13901	-0.067444	-0.001526	0.00061
32.26	-0.010223	-0.29297	-0.45349	-0.004883	0.00351	0.003052	-0.1091	0.03418	0.62347	0.019073	-0.032043	0.001831	0.039368	-0.055389	0.006104	0.002594	-0.050507	0.10742	-0.090179	0.026398	0.059662	0.10315	-0.074005	-0.043335	0.0383	-0.000916	0.073853	-0.002289	0.25421	-0.030518	-0.001068	-0.003052
32.261	-0.012817	-0.31067	-0.37567	-0.011597	0.009918	0.024261	-0.14282	0.014343	0.54443	0.008545	0.00351	-0.003815	0.014801	-0.018768	-0.032654	0.003204	-0.035095	0.063782	-0.13748	0.19287	0.052948	0.087585	-0.056915	-0.067291	0.046082	-0.010376	0.003967	-0.002594	0.3746	-0.025635	-0.001221	-0.002136
32.262	-0.0177	-0.31174	-0.29541	0.019226	0.003662	0.072021	-0.12695	-0.022888	0.031128	-0.005341	0.008545	-0.005646	-0.000763	-0.016785	0.16266	0.002289	-0.029755	0.068207	1.2424	0.20096	0.047607	0.092926	-0.028229	-0.090942	0.032349	-0.019531	0.036774	-0.002899	0.25528	-0.002747	0	0.001678
32.263	-0.003815	-0.27176	-0.25024	0.00885	0.018921	0.079803	0.036469	-0.064697	-0.50827	-0.012207	-0.016632	0.009308	0.018311	0.031281	0.07782	-0.007019	-0.024567	0.070496	1.5619	0.13138	0.050049	0.093079	-0.003662	-0.098877	0.040436	-0.01297	0.031128	0.00061	0.26093	0.032043	-0.000153	-0.001831
32.264	0.003204	-0.24445	-0.038147	-0.007019	-0.001526	0.061646	0.12177	-0.044403	-0.6781	-0.00946	0.042877	-0.004425	0.054321	0.050964	0.39078	-0.003815	-0.031738	-0.013123	0.42496	-0.03006	0.059509	0.09903	-0.00473	-0.071259	0.040436	-0.006104	0.074158	-0.001678	0.33341	-0.037994	0.007019	-0.012207
32.265	-0.003967	-0.23666	-0.034485	0.006104	0.007019	0.032806	-0.004425	-0.002136	-0.63431	-0.042419	0.11276	-0.000763	0.084534	0.14008	0.27161	0.015564	-0.036316	-0.007172	-0.82977	-0.27741	0.056763	0.10117	0.007935	-0.08667	0.02655	-0.002747	0.27023	0.000763	0.32364	-0.048676	0.000305	-0.002441
